<svg version="1.2" xmlns="http://www.w3.org/2000/svg" viewBox="0 0 114 55" width="114" height="55">
	<title>igdb_logo-svg</title>
	<style>
		.s0 { fill: #ffffff }
	</style>
	<g id="Layer_1">
		<path id="Layer" class="s0" d="m12.7 12.3h5.3v23.9h-5.3z"/>
		<path id="Layer" class="s0" d="m24.2 24.3v-0.1c0-6.7 5.3-12.3 12.5-12.3 4.3 0 6.9 1.2 9.4 3.3l-3.3 4c-1.9-1.6-3.5-2.5-6.3-2.5-3.8 0-6.8 3.4-6.8 7.5 0 4.4 3 7.6 7.2 7.6 1.9 0 3.6-0.5 4.9-1.4v-3.4h-5.2v-4.6h10.3v10.4q-1 0.9-2.2 1.6-1.2 0.7-2.5 1.2-1.3 0.5-2.7 0.7-1.4 0.3-2.8 0.3c-7.4 0-12.5-5.2-12.5-12.3z"/>
		<path id="Layer" fill-rule="evenodd" class="s0" d="m53.3 12.3h9.3c7.5 0 12.6 5.2 12.6 11.9 0 6.8-5.1 12-12.6 12h-9.3zm5.2 4.7v14.4h4.1c4.3 0 7.2-2.9 7.2-7.1v-0.1c0-4.2-2.9-7.2-7.2-7.2z"/>
		<path id="Layer" fill-rule="evenodd" class="s0" d="m81.3 12.3h11c2.7 0 4.9 0.8 6.2 2.1q0.4 0.4 0.8 0.9 0.3 0.5 0.5 1 0.2 0.5 0.3 1.1 0.1 0.5 0.1 1.1v0.1c0 2.6-1.5 4.1-3.1 5.1 2.7 1.1 4.4 2.7 4.4 5.9 0 4.4-3.5 6.6-8.9 6.6h-11.3zm13.7 7c0-1.5-1.3-2.4-3.5-2.4h-5.1v5h4.8c2.3 0 3.8-0.7 3.8-2.5zm-2.6 6.9h-6v5.3h6.2c2.3 0 3.7-0.8 3.7-2.6v-0.1c0-1.6-1.2-2.6-3.9-2.6z"/>
		<path id="Layer" fill-rule="evenodd" class="s0" d="m114.2 55l-1.9-0.3q-13.7-2.2-27.5-3.3-13.8-1-27.7-1-13.8 0-27.7 1-13.8 1.1-27.5 3.3l-1.9 0.3v-55h114.2zm-57.1-8.1q6.8 0 13.5 0.3 6.8 0.3 13.5 0.8 6.7 0.5 13.4 1.3 6.7 0.7 13.4 1.7v-47.7h-107.5v47.7q6.6-1 13.3-1.7 6.7-0.8 13.5-1.3 6.7-0.5 13.4-0.8 6.8-0.3 13.5-0.3z"/>
	</g>
</svg>
