<svg height="1383" viewBox="0 -.441 100 54.883" width="2500" xmlns="http://www.w3.org/2000/svg"><path d="m0 0h100v54h-100z" opacity=".69"/><path d="m0 5.096c0-3.286 2.964-5.537 6.462-5.023l45.64 5.962c2.05.302 3.685 2.512 3.685 4.919v6.23c-3.846 2.577-6.367 6.89-6.367 11.776 0 4.932 2.46 9.208 6.367 11.776v2.74c0 2.407-1.634 4.617-3.686 4.919l-40.498 5.532c-3.499.515-6.462-1.737-6.462-5.023zm19.68 5.726h-6.019v7.884h-3.819v4.556h3.82v8.76c-.177 5.505 1.985 7.97 6.953 8.017h4.636v-4.556h-2.38c-2.696-.131-3.28-.92-3.19-4.468v-7.753h7.4l6.853 16.776h6.469l9.434-21.332h-6.38l-6.11 14.675-5.57-14.675h-12.097z" fill="#6cd591"/><path d="m88.61 18.277c3.908 0 6.513.964 8.49 3.154 1.617 1.752 2.47 4.337 2.47 7.227 0 4.205-1.706 7.49-4.806 9.374-2.022 1.227-3.773 1.577-7.727 1.577h-9.793v-29.216h6.02v7.884zm-5.346 16.777h4.447c3.549 0 5.705-2.366 5.705-6.22 0-4.03-1.886-6.002-5.705-6.002h-4.447zm-15.25-24.661h6.02v29.216h-10.378c-4.222 0-6.244-.613-8.4-2.496-2.202-1.971-3.325-4.775-3.325-8.323 0-3.68 1.213-6.483 3.774-8.542 1.617-1.314 3.819-1.97 6.649-1.97h5.66zm0 12.44h-4.358c-3.504 0-5.615 2.234-5.615 5.957 0 3.898 2.156 6.264 5.615 6.264h4.358z" fill="#fff"/></svg>